<svg width="1em" height="1em" viewBox="0 0 20 20" fill="currentColor" xmlns="http://www.w3.org/2000/svg" aria-hidden="true" focusable="false" class=""><path fill-rule="evenodd" clip-rule="evenodd" d="M10 2C5.58172 2 2 5.58172 2 10C2 14.4183 5.58172 18 10 18C14.4183 18 18 14.4183 18 10C18 5.58172 14.4183 2 10 2ZM14.2774 7.98323C14.5719 7.69195 14.5745 7.21708 14.2832 6.92259C13.9919 6.62809 13.5171 6.62549 13.2226 6.91677L8.59375 11.4951L6.77741 9.69859C6.48292 9.4073 6.00805 9.40991 5.71677 9.7044C5.42549 9.9989 5.42809 10.4738 5.72259 10.765L8.06634 13.0832C8.35855 13.3723 8.82895 13.3723 9.12116 13.0832L14.2774 7.98323Z" fill="#667085"></path></svg>